<svg width="400" height="300" viewBox="0 0 400 300" xmlns="http://www.w3.org/2000/svg">
  <rect width="100%" height="100%" fill="#f8f9fa"/>
  <path d="M200 80c-8.8 0-16-7.2-16-16s7.2-16 16-16 16 7.2 16 16-7.2 16-16 16zm40 16h-80c-4.4 0-8 3.6-8 8v128c0 4.4 3.6 8 8 8h80c4.4 0 8-3.6 8-8V104c0-4.4-3.6-8-8-8zm-40 128c-17.7 0-32-14.3-32-32s14.3-32 32-32 32 14.3 32 32-14.3 32-32 32z" fill="#6b7280"/>
  <text x="200" y="260" text-anchor="middle" font-family="system-ui" font-size="16" fill="#374151">Tienda de Ropa</text>
</svg>