<svg width="260" height="480" viewBox="0 0 260 480" fill="none" xmlns="http://www.w3.org/2000/svg">
  <!-- Fondo del formulario -->
  <rect width="260" height="480" rx="12" fill="#F9FAFB" />
  
  <!-- Encabezado del formulario -->
  <rect width="260" height="60" rx="8" fill="#25D366" />
  <text x="50" y="38" font-family="Inter, sans-serif" font-size="16" font-weight="600" fill="white">Formulario de Pedido</text>
  
  <!-- Imagen del producto -->
  <rect x="20" y="80" width="80" height="80" rx="8" fill="#E5E7EB" />
  
  <!-- Detalles del producto -->
  <rect x="110" y="85" width="130" height="15" rx="2" fill="#111827" />
  <rect x="110" y="110" width="70" height="15" rx="2" fill="#25D366" />
  <rect x="110" y="135" width="90" height="10" rx="2" fill="#9CA3AF" />
  
  <!-- Campos del formulario -->
  <rect x="20" y="180" width="220" height="15" rx="2" fill="#6B7280" />
  <rect x="20" y="200" width="220" height="40" rx="6" fill="#F3F4F6" stroke="#D1D5DB" />
  
  <rect x="20" y="250" width="220" height="15" rx="2" fill="#6B7280" />
  <rect x="20" y="270" width="220" height="40" rx="6" fill="#F3F4F6" stroke="#D1D5DB" />
  
  <rect x="20" y="320" width="220" height="15" rx="2" fill="#6B7280" />
  <rect x="20" y="340" width="220" height="40" rx="6" fill="#F3F4F6" stroke="#D1D5DB" />
  
  <!-- Botón de enviar -->
  <rect x="20" y="410" width="220" height="50" rx="8" fill="#25D366" />
  <text x="85" y="442" font-family="Inter, sans-serif" font-size="16" font-weight="600" fill="white">Enviar Pedido</text>
</svg>