<svg xmlns="http://www.w3.org/2000/svg" width="24" height="24" viewBox="0 0 24 24" fill="#25D366">
  <path d="M17.6 6.32C16.27 4.98 14.5 4.24 12.64 4.24C8.78 4.24 5.65 7.38 5.65 11.26C5.65 12.5 5.98 13.71 6.6 14.77L5.57 18.5L9.4 17.5C10.42 18.07 11.56 18.37 12.71 18.37C16.58 18.37 19.71 15.23 19.71 11.34C19.71 9.46 18.95 7.67 17.6 6.32M12.64 17.16C11.62 17.16 10.62 16.88 9.75 16.36L9.53 16.23L7.13 16.84L7.75 14.5L7.6 14.27C7.03 13.36 6.73 12.29 6.73 11.18C6.73 8 9.38 5.35 12.57 5.35C14.1 5.35 15.54 5.96 16.62 7.05C17.71 8.15 18.31 9.61 18.31 11.16C18.38 14.35 15.73 17.16 12.64 17.16M15.56 12.7C15.34 12.59 14.26 12.05 14.06 11.98C13.86 11.91 13.72 11.87 13.57 12.09C13.42 12.31 13 12.81 12.88 12.96C12.76 13.1 12.63 13.12 12.41 13.01C11.33 12.47 10.62 12.05 9.9 10.8C9.71 10.48 10.15 10.5 10.56 9.68C10.63 9.53 10.6 9.4 10.54 9.29C10.48 9.18 10.06 8.1 9.88 7.65C9.71 7.22 9.54 7.27 9.41 7.26C9.29 7.25 9.15 7.25 9 7.25C8.85 7.25 8.61 7.31 8.41 7.53C8.21 7.75 7.63 8.29 7.63 9.37C7.63 10.45 8.4 11.5 8.5 11.65C8.6 11.79 10.05 13.98 12.22 14.95C13.35 15.5 13.79 15.56 14.35 15.46C14.71 15.4 15.59 14.93 15.76 14.4C15.93 13.87 15.93 13.42 15.87 13.33C15.82 13.23 15.67 13.18 15.56 12.7Z"/>
</svg>
